<svg viewBox="122.88 126.56639999999999 780.288 780.288" xmlns="http://www.w3.org/2000/svg" style="max-height: 500px" width="780.288" height="780.288">
  <g stroke-linejoin="round" stroke-linecap="round" stroke-width="10" stroke="#ffffff" fill="none">
    <circle r="372" cy="512" cx="512"/>
    <circle r="358" cy="512" cx="512"/>
    <circle r="328" cy="512" cx="512"/>
  </g>
  <g fill="#ffffff">
    <path d="M 726 363 L 647 382 L 582 391 L 552 393 L 506 393 L 483 391 L 457 386 L 437 378 L 427 369 L 425 364 L 426 353 L 435 339 L 450 325 L 478 305 L 499 293 L 501 290 L 494 290 L 459 297 L 405 314 L 369 329 L 335 348 L 304 373 L 302 377 L 304 378 L 333 367 L 335 368 L 316 379 L 301 392 L 291 408 L 290 422 L 293 432 L 297 438 L 309 449 L 329 460 L 348 467 L 368 472 L 397 476 L 439 476 L 460 474 L 519 465 L 567 455 L 628 436 L 667 416 L 669 412 L 608 432 L 563 441 L 554 441 L 554 439 L 584 434 L 607 428 L 664 408 L 688 396 L 708 383 L 725 367 Z"/>
    <path d="M 742 521 L 739 515 L 728 504 L 712 495 L 687 486 L 656 480 L 634 478 L 597 478 L 522 487 L 450 503 L 415 514 L 374 530 L 351 542 L 349 546 L 352 546 L 377 537 L 433 522 L 464 516 L 470 516 L 470 518 L 457 520 L 406 534 L 345 556 L 326 565 L 303 579 L 289 590 L 280 599 L 280 602 L 366 579 L 430 567 L 485 562 L 520 562 L 552 565 L 587 574 L 598 580 L 605 588 L 605 597 L 603 602 L 590 617 L 571 631 L 537 650 L 546 651 L 574 647 L 603 640 L 639 627 L 677 609 L 701 594 L 714 584 L 728 567 L 714 574 L 699 579 L 695 578 L 720 564 L 733 552 L 739 544 L 742 536 Z"/>
  </g>
</svg>