<svg xmlns="http://www.w3.org/2000/svg" viewBox="0 0 1024 1024" fill="none">
  <g fill="#fff">
    <!-- Center crown burst -->
    <path d="m520 230 37 196 73-55-12 95 99-44-51 111-4-89-58 25 10-77-53 42-41-122-38 127-58-53 9 84-84-34 50 104-87-96 112 42-12-83 61 56z"/>

    <!-- Side lightning -->
    <path d="m200 392 134 59-57 14 63 49-130-64 48-9z"/>
    <path d="m318 523-102-16 121 73-10-31 56 12z"/>
    <path d="m824 392-134 59 57 14-63 49 130-64-48-9z"/>
    <path d="m706 523 102-16-121 73 10-31-56 12z"/>

    <!-- Main impact mass -->
    <path d="m351 565 56-27 61 20 33 44 47-42 85-58 37 33 28 43 17 64-9 77-64 38-95 43 118-40 13-5-1-13-8-92 45 120 1 3v3c0 30-16 41-37 49-32 11-85 18-169 21-80 4-170 2-239-4-72-7-122-19-148-41-22-18-27-45-18-80l35-113z"/>

    <!-- Top crack facets -->
    <path d="m430 533 46-40 30 17-42 36z"/>
    <path d="m506 510 64-44 65 9-87 84z"/>

    <!-- Ground chips -->
    <path d="m252 820 44-17 29-1 4 20z"/>
    <path d="m777 820 50-19 30 2 3 16z"/>
  </g>
</svg>
